<?xml version="1.0" encoding="utf-8"?>
<!-- Generator: Adobe Illustrator 24.0.1, SVG Export Plug-In . SVG Version: 6.00 Build 0)  -->
<svg version="1.1" id="icon" xmlns="http://www.w3.org/2000/svg" xmlns:xlink="http://www.w3.org/1999/xlink" x="0px" y="0px"
	 viewBox="0 0 50 50" style="enable-background:new 0 0 50 50;" xml:space="preserve">
<style type="text/css">
	.st0{fill:#007C76;}
</style>
<g>
</g>
<path class="st0" d="M8.8,24c0-3.4,2.8-6.2,6.2-6.2h8V14h-8C9.5,14,5,18.5,5,24s4.5,10,10,10h8v-3.8h-8C11.6,30.2,8.8,27.4,8.8,24z
	 M17,26h16v-4H17V26z M35,14h-8v3.8h8c3.4,0,6.2,2.8,6.2,6.2s-2.8,6.2-6.2,6.2h-8V34h8c5.5,0,10-4.5,10-10S40.5,14,35,14z"/>
</svg>
