<?xml version="1.0" encoding="utf-8"?>
<!-- Generator: Adobe Illustrator 24.0.1, SVG Export Plug-In . SVG Version: 6.00 Build 0)  -->
<svg version="1.1" id="icon" xmlns="http://www.w3.org/2000/svg" xmlns:xlink="http://www.w3.org/1999/xlink" x="0px" y="0px"
	 viewBox="0 0 50 50" style="enable-background:new 0 0 50 50;" xml:space="preserve">
<style type="text/css">
	.st0{fill:#FFFFFF;}
</style>
<g>
	<path class="st0" d="M32.1,5.1c0,0.4,0,0.7,0,1.1c0,3,0,6.1,0,9.1c0,1.2,0.2,1.4,1.5,1.4c3.3,0,6.7,0,10.1,0c0,0.4,0,0.7,0,1
		c0,8.3,0,16.7,0,25c0,1.7-0.6,2.3-2.3,2.3c-7.9,0-15.8,0-23.7,0c-1.8,0-2.3-0.5-2.3-2.3c0-2.3,0-4.5,0-6.9c0.4,0,0.8,0,1.1,0
		c4.2,0,8.4,0,12.6,0c2,0,3-1,3-3c0-3.8,0-7.5,0-11.3c0-2.3-0.9-3.2-3.1-3.2c-4.1,0-8.2,0-12.3,0c-0.4,0-0.8,0-1.3,0
		c0-0.5,0-0.9,0-1.4c0-3.3,0-6.6,0-9.9c0-1.4,0.6-2,1.9-2c4.7,0,9.5,0,14.2,0C31.7,5,31.8,5.1,32.1,5.1z"/>
	<path class="st0" d="M42.7,14.9c-3.1,0-6,0-8.9,0c0-3,0-6,0-9.3C36.8,8.8,39.7,11.8,42.7,14.9z"/>
	<g>
		<path class="st0" d="M18.3,24.5h-1.1v5h1.1c0.5,0,0.9-0.2,1.1-0.5c0.3-0.4,0.4-0.8,0.4-1.4v-1.2c0-0.5-0.1-1-0.4-1.4
			C19.2,24.7,18.8,24.5,18.3,24.5z"/>
		<path class="st0" d="M12.1,24.5h-1.3v2.4h1.3c0.4,0,0.7-0.1,0.9-0.3c0.2-0.2,0.3-0.5,0.3-0.8c0-0.4-0.1-0.6-0.3-0.9
			C12.8,24.6,12.5,24.5,12.1,24.5z"/>
		<path class="st0" d="M29,20c-3.5,0-7.1,0-10.6,0c-3.5,0-7.1,0-10.6,0c-1.2,0-1.4,0.2-1.4,1.4c0,3.8,0,7.6,0,11.4
			c0,1.1,0.2,1.4,1.3,1.4c7.2,0,14.3,0,21.5,0c1.1,0,1.3-0.3,1.3-1.4c0-3.8,0-7.5,0-11.3C30.4,20.2,30.2,20,29,20z M14.1,27.3
			c-0.5,0.4-1.1,0.6-1.9,0.6h-1.3v2.6H9.4v-7.2h2.8c0.8,0,1.5,0.2,1.9,0.6c0.5,0.4,0.7,1,0.7,1.7C14.8,26.4,14.5,26.9,14.1,27.3z
			 M21.4,27.6c0,0.9-0.3,1.6-0.9,2.2c-0.6,0.6-1.3,0.8-2.2,0.8h-2.5v-7.2h2.5c0.9,0,1.6,0.3,2.2,0.8s0.9,1.3,0.9,2.2V27.6z
			 M27.2,24.5h-3.3v2h2.8v1.1h-2.8v3h-1.4v-7.2h4.7V24.5z"/>
	</g>
</g>
</svg>
