<?xml version="1.0" encoding="UTF-8"?>
<!-- Generator: Adobe Illustrator 23.0.2, SVG Export Plug-In . SVG Version: 6.00 Build 0)  -->
<svg version="1.1" id="icon" fill="white" xmlns="http://www.w3.org/2000/svg" xmlns:xlink="http://www.w3.org/1999/xlink" x="0px" y="0px" viewBox="0 0 50 50" style="enable-background:new 0 0 50 50;" xml:space="preserve">
<g>
</g>
<path d="M24.67,12.36c-9.09,0-16.85,5.65-20,13.64c3.15,7.98,10.91,13.64,20,13.64s16.85-5.65,20-13.64  C41.52,18.02,33.76,12.36,24.67,12.36z M24.67,35.09c-5.02,0-9.09-4.07-9.09-9.09s4.07-9.09,9.09-9.09s9.09,4.07,9.09,9.09  S29.68,35.09,24.67,35.09z M24.67,20.55c-3.02,0-5.45,2.44-5.45,5.45s2.44,5.45,5.45,5.45s5.45-2.44,5.45-5.45  S27.68,20.55,24.67,20.55z"/>
</svg>