<?xml version="1.0" encoding="utf-8"?>
<!-- Generator: Adobe Illustrator 24.0.1, SVG Export Plug-In . SVG Version: 6.00 Build 0)  -->
<svg version="1.1" id="Capa_1" fill="#B91450" xmlns="http://www.w3.org/2000/svg" xmlns:xlink="http://www.w3.org/1999/xlink" x="0px" y="0px"
	 viewBox="0 0 300 300" style="enable-background:new 0 0 300 300;" xml:space="preserve">
<path d="M227.3,79.1l-9.9-6.2l-21.6,12c-8.1-9.3-20.5-15.8-36.1-15.8c-16.8,0-39.1,9.3-54.5,26.8c-16.8,18.9-29.5,48.4-29.5,75.8
	c0,34.3,18.5,51.8,41.8,51.8c18.1,0,34.7-7.3,49.5-31.4c5.9,18.5,23.5,31.4,49.6,31.4c48.7,0,77.2-41.5,77.2-97.1
	c0-70.3-49.4-117.3-119.7-117.3c-99.8,0-166,75.5-166,158.5c0,74.8,50.4,122.4,129,122.4c33.6,0,62.1-10.3,84.4-26.4l-11.3-18.9
	c-19.5,11.7-46.3,16.8-67.9,16.8c-59.7,0-95.7-35.7-95.7-93.6c0-73.1,50.8-131,123.8-131c54.9,0,89.9,26.1,89.9,89.5
	c0,50.8-14.7,74.8-36,74.8c-12.3,0-15.8-6.8-11-35.7L227.3,79.1z M147.1,189.5c-11,0-20.2-9.6-20.2-30.5c0-17.1,4.1-32.6,12.3-45.6
	c7.9-12.3,17.1-17.1,24-17.1c4.1,0,7.7,1.1,11.6,4.7l-13.1,80.5C156.7,187.3,152,189.5,147.1,189.5z"/>
</svg>
