<?xml version="1.0" encoding="utf-8"?>
<!-- Generator: Adobe Illustrator 24.0.1, SVG Export Plug-In . SVG Version: 6.00 Build 0)  -->
<svg version="1.1" id="Capa_1" xmlns="http://www.w3.org/2000/svg" xmlns:xlink="http://www.w3.org/1999/xlink" x="0px" y="0px"
	 viewBox="0 0 300 300" style="enable-background:new 0 0 300 300;" xml:space="preserve">
<path d="M176.9,150.2L291.1,36c7.4-7.4,7.4-19.3,0-26.7c-7.4-7.4-19.3-7.4-26.7,0L150.2,123.5L36.1,9.3c-7.4-7.4-19.3-7.4-26.7,0
	C2,16.7,2,28.6,9.4,36l114.2,114.2L12.3,261.4c-7.4,7.4-7.4,19.3,0,26.7c3.7,3.7,8.5,5.5,13.3,5.5s9.7-1.8,13.3-5.5l111.3-111.3
	l111.3,111.3c3.7,3.7,8.5,5.5,13.3,5.5c4.8,0,9.7-1.8,13.3-5.5c7.4-7.4,7.4-19.3,0-26.7L176.9,150.2z"/>
</svg>
