<?xml version="1.0" encoding="utf-8"?>
<!-- Generator: Adobe Illustrator 24.1.2, SVG Export Plug-In . SVG Version: 6.00 Build 0)  -->
<svg version="1.1" baseProfile="tiny" id="Capa_1" xmlns="http://www.w3.org/2000/svg" xmlns:xlink="http://www.w3.org/1999/xlink"
	 x="0px" y="0px" viewBox="0 0 50 50" overflow="visible" xml:space="preserve">
<path fill-rule="evenodd" d="M45,25c0-11-9-20-20-20S5,14,5,25s9,20,20,20S45,36,45,25z M32.98,40c5.4-2.88,9.02-8.58,9.02-15
	s-3.62-12.12-9.02-15V40z M23.2,8.1v33.8c-1.3-0.14-2.55-0.41-3.74-0.81l0.01-32.16C20.66,8.51,21.91,8.24,23.2,8.1z M26.2,41.95
	V8.05c1.31,0.09,2.57,0.33,3.78,0.7v32.51C28.78,41.62,27.51,41.86,26.2,41.95z"/>
</svg>
