<svg id="Layer_1" data-name="Layer 1" xmlns="http://www.w3.org/2000/svg" viewBox="0 0 50 50"><defs><style>.cls-1{fill:#b92054;}</style></defs><title>Artboard 326</title><path class="cls-1" d="M43.89,35.22c-.28-1.19-.47-1.38-3.61-4.53s-3.37-3.37-4.59-3.62a4,4,0,0,0-2.87.51,26.39,26.39,0,0,0-2.09,1.91l-1.38,1.37-.21-.11a19.09,19.09,0,0,1-3.6-2.44A33.78,33.78,0,0,1,21,23.6a27.16,27.16,0,0,1-1.88-2.91c.18-.2.55-.57,1-1.07a12.2,12.2,0,0,0,2.45-2.83,3.94,3.94,0,0,0,.23-3c-.33-1-.69-1.37-3.45-4.13s-3.22-3.18-4.13-3.49A4.56,4.56,0,0,0,13,6h0a5.19,5.19,0,0,0-2,1.12c-.73.63-3.18,3.13-3.6,3.67-1.74,2.23-1.8,5.56-.15,9.91A39.16,39.16,0,0,0,17.34,35.31C23,40.51,30.28,44.05,35,44.05a7.11,7.11,0,0,0,1.71-.19,7.63,7.63,0,0,0,2.36-1.1,56.32,56.32,0,0,0,4.19-4.29A4.2,4.2,0,0,0,43.89,35.22ZM16.26,19.54a1.67,1.67,0,0,0-.15,1,3.45,3.45,0,0,0,.57,1.68,23.64,23.64,0,0,0,4.6,6.1A25.83,25.83,0,0,0,28,33.42a3,3,0,0,0,1.48.52,2.33,2.33,0,0,0,.95-.19,26.48,26.48,0,0,0,2.12-1.95A16.73,16.73,0,0,1,34.42,30a1.23,1.23,0,0,1,1,0c.51.33,5.27,5.09,5.59,5.58a1.13,1.13,0,0,1,.11.54c0,.51,0,.59-2.06,2.66s-2.13,2.09-3.07,2.3a10.12,10.12,0,0,1-4.35-.48,33.22,33.22,0,0,1-9.24-4.88C16.69,31.56,11.72,25.05,9.7,19.16c-.94-2.74-1.06-4.66-.36-6.07.19-.41.38-.63,1.86-2.13,1-1,1.78-1.75,1.9-1.84a1.39,1.39,0,0,1,.81-.29,1.14,1.14,0,0,1,.6.17c.17.11,1.16,1,2.82,2.7,2.78,2.79,2.78,2.83,2.78,3.35s-.05.57-1.92,2.43A20.25,20.25,0,0,0,16.26,19.54Z"/></svg>