<?xml version="1.0" encoding="utf-8"?>
<!-- Generator: Adobe Illustrator 23.0.3, SVG Export Plug-In . SVG Version: 6.00 Build 0)  -->
<svg version="1.1" id="Capa_1" xmlns="http://www.w3.org/2000/svg" xmlns:xlink="http://www.w3.org/1999/xlink" x="0px" y="0px"
	 viewBox="0 0 135.8 182.1" style="enable-background:new 0 0 135.8 182.1;" xml:space="preserve">
<style type="text/css">
	.st0{fill:#B6004C;}
</style>
<title>icono-file-pdf-regular</title>
<g>
	<path class="st0" d="M64.1,122.9c2.1,2.1,5.4,2.1,7.5,0l22.8-22.8c2.1-2.1,2.1-5.4,0-7.5s-5.4-2.1-7.5,0l-13.7,13.7V67.9
		c0-2.9-2.4-5.3-5.3-5.3s-5.3,2.4-5.3,5.3v38.4L48.9,92.6c-2.1-2.1-5.4-2.1-7.5,0s-2.1,5.4,0,7.5L64.1,122.9z"/>
	<path class="st0" d="M90.7,136.6H45.1c-2.9,0-5.3,2.4-5.3,5.3c0,2.9,2.4,5.3,5.3,5.3h45.5c2.9,0,5.3-2.4,5.3-5.3
		C96,138.9,93.6,136.6,90.7,136.6z"/>
	<path class="st0" d="M125.2,164.6c0,3.3-2.7,6.1-6.1,6.1H16.7c-3.3,0-6.1-2.7-6.1-6.1V50.5h23.1c9.2,0,16.7-7.5,16.7-16.7V10.6
		h68.7c3.3,0,6.1,2.7,6.1,6.1V164.6z M39.8,12.4v21.3c0,3.3-2.7,6.1-6.1,6.1H12.4L39.8,12.4z M119.1,0H39.4c-1.4,0-2.8,0.6-3.8,1.6
		l-34,34.1c-1,1-1.6,2.3-1.6,3.8v125.2c0,9.2,7.5,16.7,16.7,16.7h102.4c9.2,0,16.7-7.4,16.7-16.7v-148C135.8,7.5,128.4,0,119.1,0z"
		/>
</g>
</svg>
